<svg xmlns="http://www.w3.org/2000/svg" xmlns:xlink="http://www.w3.org/1999/xlink" viewBox="0 0 181.57 165.82"><defs><style>.cls-1,.cls-8,.cls-9{fill:none;}.cls-2{isolation:isolate;}.cls-3{clip-path:url(#clip-path);}.cls-10,.cls-4{opacity:0.5;}.cls-4{mix-blend-mode:multiply;}.cls-13,.cls-5{fill:#dcd1c6;}.cls-6{fill:#fff;stroke:#bdb4ab;stroke-miterlimit:10;stroke-width:0.5px;}.cls-7{opacity:0.25;}.cls-8,.cls-9{stroke:#f8a084;stroke-linecap:round;stroke-miterlimit:3.86;}.cls-13,.cls-8,.cls-9{stroke-width:0.75px;}.cls-13,.cls-8{fill-rule:evenodd;}.cls-11{fill:#f8a084;}.cls-12{fill:url(#linear-gradient);}.cls-13{stroke:#fff;stroke-linejoin:round;}</style><clipPath id="clip-path"><polygon class="cls-1" points="-29.46 178.72 -29.46 10.8 225.66 10.8 225.66 165.85 -29.46 165.85 -29.46 178.72"/></clipPath><linearGradient id="linear-gradient" x1="48.51" y1="96.44" x2="138.2" y2="96.44" gradientUnits="userSpaceOnUse"><stop offset="0" stop-color="#fff"/><stop offset="0.48" stop-color="#f8a084"/><stop offset="0.55" stop-color="#f9a78d"/><stop offset="0.68" stop-color="#fabaa5"/><stop offset="0.83" stop-color="#fcd8cd"/><stop offset="1" stop-color="#fff"/></linearGradient></defs><title>body</title><g class="cls-2"><g id="Background"><g class="cls-3"><g class="cls-4"><path class="cls-5" d="M107.91,245.74a5.42,5.42,0,0,1-1.12-.14,1.52,1.52,0,0,1-1.08-.95l-0.1-.17a0.93,0.93,0,0,1-.09.16,2.34,2.34,0,0,1-1.9.62h-0.26a2.93,2.93,0,0,1-3.18-3.05c-0.55-.57-0.27-2.17-0.07-3.34,0.06-.36.11-0.66,0.13-0.88a32.66,32.66,0,0,1,.77-5.76,6.64,6.64,0,0,0,.17-2.26,5.09,5.09,0,0,1,.31-2.43c0.41-1.08.33-2.35,0.14-5.15-0.12-1.76-.29-4.18-0.39-7.52a42.59,42.59,0,0,0-2-11.61,22.37,22.37,0,0,1-1-4.37c-0.23-3.15.66-8.25,1.31-12l0.29-1.7c0.45-2.71-.37-5.59-1.09-8.12-0.25-.9-0.5-1.76-0.68-2.57-0.41-1.86-.78-6.39-1.14-10.77-0.25-3.1-.49-6-0.72-7.55C96,154,95.71,148.82,95.56,145c-0.33,4.4-.85,10.59-1.19,11.74-0.54,1.81-.8,6.26-1,9.93a56.13,56.13,0,0,1-2.22,13c-0.84,2.45-.08,7,0.66,11.46,0.17,1,.35,2.09.5,3.1,0.47,3.13-.36,7.06-1.25,11.21a64.35,64.35,0,0,0-1.46,8.77c-0.11,1.51-.21,2.94-0.31,4.26-0.33,4.5-.6,8-0.29,9a5.15,5.15,0,0,1,.42,2.87,10.69,10.69,0,0,0,.2,4.18,13.14,13.14,0,0,1,.6,3.46,9.88,9.88,0,0,0,.17,1.42c0.07,0.45.14,0.9,0.16,1.26a2.21,2.21,0,0,1-.31,1.31c-0.08.16-.17,0.34-0.27,0.58a1.1,1.1,0,0,1,0,1,3.22,3.22,0,0,1-2.76,1.6H87a1.94,1.94,0,0,1-2-1.13l0,0a0.88,0.88,0,0,1-.12.45,2.33,2.33,0,0,1-1.5.87,1.77,1.77,0,0,1-.48.07,1.31,1.31,0,0,1-1.15-.66,2.89,2.89,0,0,1-1.34.39,1,1,0,0,1-.76-0.32,1.11,1.11,0,0,1-.22-0.65H79.16a1.9,1.9,0,0,1-1-.27,1.2,1.2,0,0,1-.38-1.46,1.33,1.33,0,0,1-.61-0.84c-0.25-1.09.94-2.27,1.9-3.22a5.27,5.27,0,0,0,.81-0.9A18.61,18.61,0,0,0,81,231.86a11.12,11.12,0,0,1,.41-4.5c0.32-.74.38-6.25-1.38-14.26-1.56-7.1-3.27-16.45-3.41-21.4a31.66,31.66,0,0,1,.93-7.64,44.13,44.13,0,0,0,.84-5,33.77,33.77,0,0,0-.31-7.53c-0.12-1-.24-1.91-0.27-2.7-0.08-2.15-.18-2.57-1.42-7.63l-0.47-1.91c-1.57-6.42-2.38-14.15-2.48-23.62-0.08-7.77.7-10.79,1.34-13.22l0.22-.86a32.78,32.78,0,0,0,.79-7c0.06-1.45.31-4.54,0.53-7.27,0.14-1.68.26-3.19,0.31-4a39.52,39.52,0,0,1,.75-4.83c0.14-.69.26-1.35,0.36-1.92a16.54,16.54,0,0,0-.61-5.89C76.8,89.81,76,85.33,76,85.13l0.08-.2-0.22-.17c-0.44,1.43-2.2,7.26-2.61,9.09-0.11.49-.2,1.06-0.29,1.67-0.32,2-.72,4.53-2.07,5.87a12.49,12.49,0,0,0-1.38,3.79,31.33,31.33,0,0,1-2.41,6.65c-2.13,3.76-8.17,15-8.62,16.43a11,11,0,0,1-1,6.92c-1.11,2.62-1.8,4.45-1.84,5.49V141c0,1.73-.14,5.79-1.89,5.79a1.05,1.05,0,0,1-.85-0.36c-0.33-.42-0.26-1.13,0-2.23a9.87,9.87,0,0,0,.14-2.42c-0.17.85-.33,1.4-0.34,1.43a16.23,16.23,0,0,1-.67,3.33,5.89,5.89,0,0,1-1.23,3.59,1.19,1.19,0,0,1-.85.42,1,1,0,0,1-.47-0.12c-1-.51-0.76-1.61-0.43-3.44l0-.22a32.65,32.65,0,0,0,.43-3.51v-0.14a5.64,5.64,0,0,1-.3.51c0.14,1-.9,2.9-1,3.12,0,0.34-.06,4.41-1.86,4.41h0a1.48,1.48,0,0,1-1.2-.42,1.82,1.82,0,0,1-.3-1.49c0-.23.11-0.68,0.22-1.24a28.57,28.57,0,0,0,.53-3.55c0-.33,0-0.62,0-0.89a4.55,4.55,0,0,1-.42.81A4.72,4.72,0,0,1,44,147.37a1.48,1.48,0,0,1-1.09.57,1.34,1.34,0,0,1-1-.42,2,2,0,0,1-.14-1.52c0-.17,0-0.35.06-0.53a36.75,36.75,0,0,1,.75-3.68l0.18-.77a15.3,15.3,0,0,1,.76-2,17.09,17.09,0,0,0,.7-1.77,17.2,17.2,0,0,0,.3-3.4l-0.24.16a3.29,3.29,0,0,1-1.31.63,5.76,5.76,0,0,1-3.59,1.93,2.18,2.18,0,0,1-.75-0.13,1.53,1.53,0,0,1-1.2-1.26,1.25,1.25,0,0,1,.87-1.13,6.24,6.24,0,0,0,1.46-1.13,5.65,5.65,0,0,1,1.65-1.22,7,7,0,0,0,1.67-1.35,9.36,9.36,0,0,1,2.38-1.87,25.85,25.85,0,0,0,4.68-3.38,7,7,0,0,0,.57-1.54,17.37,17.37,0,0,1,1.37-3.65c0.63-.94,2.31-3.44,3.59-11.35,1.25-7.71,2.2-10.35,4.62-14.89,2.16-4,3.42-7.93,3.46-10.68a62.14,62.14,0,0,1,1.11-7.57c0.19-1,.34-1.85.4-2.27a15.31,15.31,0,0,0,0-2.25,22.22,22.22,0,0,1,.23-6.13c0.72-2.89,2.55-6.13,4.16-7.38a22.1,22.1,0,0,1,3.57-2,13.94,13.94,0,0,0,1.82-1,2.71,2.71,0,0,1,1.14-.58,9.56,9.56,0,0,0,1.22-.43,32.88,32.88,0,0,0,3.54-2,33.58,33.58,0,0,1,3.17-1.85,15.25,15.25,0,0,0,2.95-1.92c0-.5,0-2.42.09-3.67a15.41,15.41,0,0,0-.62-4c-0.39-.09-1.28-0.48-1.76-2.18a12.43,12.43,0,0,1-.45-3.09,4.79,4.79,0,0,0-.09-0.94,1.88,1.88,0,0,1,0-1.47A0.56,0.56,0,0,1,84.68,32h0.59c0-.63,0-2.56,0-2.87,0-.5,0-0.89,0-1.22,0-1.13,0-1.75,1-4.21a10,10,0,0,1,8.49-5.8,9.07,9.07,0,0,1,7,2.89,9.9,9.9,0,0,1,3.3,5.41,43.13,43.13,0,0,1-.06,5.83l0.3,0a0.6,0.6,0,0,1,.53.21,1.88,1.88,0,0,1,0,1.46,5.1,5.1,0,0,0-.08.93,12.36,12.36,0,0,1-.45,3.1c-0.48,1.71-1.37,2.1-1.76,2.18a15.37,15.37,0,0,0-.62,4c0.12,1.25.1,3.17,0.09,3.67A15.25,15.25,0,0,0,106,49.46a33.82,33.82,0,0,1,3.16,1.84,32.83,32.83,0,0,0,3.55,2,9.59,9.59,0,0,0,1.22.43,2.78,2.78,0,0,1,1.14.58,13.54,13.54,0,0,0,1.83,1,22.51,22.51,0,0,1,3.57,2c1.61,1.25,3.43,4.49,4.16,7.38a22.37,22.37,0,0,1,.22,6.14,15.64,15.64,0,0,0,0,2.25c0.05,0.41.21,1.21,0.39,2.21A63.25,63.25,0,0,1,126.3,83c0,2.75,1.31,6.64,3.47,10.68,2.42,4.54,3.37,7.18,4.62,14.89,1.28,7.91,3,10.41,3.58,11.35a17.19,17.19,0,0,1,1.37,3.64,12,12,0,0,0,.5,1.5,31,31,0,0,0,4.74,3.44,9.37,9.37,0,0,1,2.39,1.87,6.94,6.94,0,0,0,1.67,1.35,5.69,5.69,0,0,1,1.65,1.22,6.28,6.28,0,0,0,1.46,1.13,1.26,1.26,0,0,1,.87,1.13,1.54,1.54,0,0,1-1.2,1.26,2.18,2.18,0,0,1-.75.13c-1.46,0-3-1.25-3.74-2h0a3,3,0,0,1-1.12-.56l-0.25-.16a17.4,17.4,0,0,0,.3,3.4,16.5,16.5,0,0,0,.7,1.77,14.8,14.8,0,0,1,.76,2l0.19,0.81a35.81,35.81,0,0,1,.74,3.64c0,0.18,0,.36.07,0.53a2,2,0,0,1-.14,1.53,1.23,1.23,0,0,1-.9.42h0a1.49,1.49,0,0,1-1.18-.56,5.16,5.16,0,0,1-1.14-3.11,3.17,3.17,0,0,1-.38-0.67c0,0.29,0,.59,0,0.92a28.4,28.4,0,0,0,.53,3.52c0.11,0.57.19,1,.22,1.26a1.86,1.86,0,0,1-.3,1.5,1.4,1.4,0,0,1-1.09.41c-1.91,0-2-4.07-2-4.53a6.45,6.45,0,0,1-1-3c-0.11-.17-0.21-0.34-0.3-0.51v0.13a32.14,32.14,0,0,0,.43,3.51l0,0.22c0.33,1.83.53,2.94-.44,3.45a1,1,0,0,1-.46.12,1.18,1.18,0,0,1-.85-0.42,6.07,6.07,0,0,1-1.25-3.68,15.76,15.76,0,0,1-.66-3.28s-0.16-.55-0.33-1.4a9.91,9.91,0,0,0,.14,2.43c0.22,1.1.29,1.81,0,2.23a1,1,0,0,1-.81.36c-1.57,0-1.84-2.92-1.92-5.77v-0.39c0-1-.73-2.87-1.84-5.49a9.55,9.55,0,0,1-.57-6.53c-0.29-.85-3.3-6.3-5.71-10.68-1.39-2.53-2.68-4.85-3.34-6.14a32.49,32.49,0,0,1-1.8-4.78,26.86,26.86,0,0,0-2.6-6.31A9.43,9.43,0,0,1,117.53,97a17.3,17.3,0,0,0-.66-3.09c-0.54-1.56-1.82-6.17-2.41-8.32-0.18,1.16-.51,3-1,5a17.46,17.46,0,0,0-.12,8.13,21.13,21.13,0,0,1,.35,4.23c0,1,0,1.94.13,2.64,0.05,0.38.15,1,.29,1.74,0.48,2.79,1.29,7.46,1,10a13.11,13.11,0,0,0,.7,5.5c0.21,0.73.42,1.49,0.6,2.32,2.36,17.08-1,31.81-2.65,38.89a23.93,23.93,0,0,0-.77,4.06,22.32,22.32,0,0,1-.47,4.72A25.07,25.07,0,0,0,112,177a34.25,34.25,0,0,0,.94,5.68c0.36,1.68.76,3.57,1.07,5.54,0.7,4.57-2.63,21.17-4.13,27.33a31,31,0,0,0-.59,11.91,5.35,5.35,0,0,0,.28.83,3.09,3.09,0,0,1,.18,2.42,3.3,3.3,0,0,0,0,2.67,6.7,6.7,0,0,1,.25,1.78,6.11,6.11,0,0,0,.16,1.34,24.19,24.19,0,0,0,1.79,2.67c0.42,0.58.78,1.08,0.91,1.3A1.79,1.79,0,0,1,113,242a1,1,0,0,1-.38.5,1.31,1.31,0,0,1-1.51,1.71h-0.2a1.47,1.47,0,0,1-1.59,1.1l-0.35,0A1.14,1.14,0,0,1,107.91,245.74Z"/></g><path class="cls-6" d="M105.91,245.74a5.42,5.42,0,0,1-1.12-.14,1.52,1.52,0,0,1-1.08-.95l-0.1-.17a0.93,0.93,0,0,1-.09.16,2.34,2.34,0,0,1-1.9.62h-0.26a2.93,2.93,0,0,1-3.18-3.05c-0.55-.57-0.27-2.17-0.07-3.34,0.06-.36.11-0.66,0.13-0.88a32.66,32.66,0,0,1,.77-5.76,6.64,6.64,0,0,0,.17-2.26,5.09,5.09,0,0,1,.31-2.43c0.41-1.08.33-2.35,0.14-5.15-0.12-1.76-.29-4.18-0.39-7.52a42.59,42.59,0,0,0-2-11.61,22.37,22.37,0,0,1-1-4.37c-0.23-3.15.66-8.25,1.31-12l0.29-1.7c0.45-2.71-.37-5.59-1.09-8.12-0.25-.9-0.5-1.76-0.68-2.57-0.41-1.86-.78-6.39-1.14-10.77-0.25-3.1-.49-6-0.72-7.55C94,154,93.71,148.82,93.56,145c-0.33,4.4-.85,10.59-1.19,11.74-0.54,1.81-.8,6.26-1,9.93a56.13,56.13,0,0,1-2.22,13c-0.84,2.45-.08,7,0.66,11.46,0.17,1,.35,2.09.5,3.1,0.47,3.13-.36,7.06-1.25,11.21a64.35,64.35,0,0,0-1.46,8.77c-0.11,1.51-.21,2.94-0.31,4.26-0.33,4.5-.6,8-0.29,9a5.15,5.15,0,0,1,.42,2.87,10.69,10.69,0,0,0,.2,4.18,13.14,13.14,0,0,1,.6,3.46,9.88,9.88,0,0,0,.17,1.42c0.07,0.45.14,0.9,0.16,1.26a2.21,2.21,0,0,1-.31,1.31c-0.08.16-.17,0.34-0.27,0.58a1.1,1.1,0,0,1,0,1,3.22,3.22,0,0,1-2.76,1.6H85a1.94,1.94,0,0,1-2-1.13l0,0a0.88,0.88,0,0,1-.12.45,2.33,2.33,0,0,1-1.5.87,1.77,1.77,0,0,1-.48.07,1.31,1.31,0,0,1-1.15-.66,2.89,2.89,0,0,1-1.34.39,1,1,0,0,1-.76-0.32,1.11,1.11,0,0,1-.22-0.65H77.16a1.9,1.9,0,0,1-1-.27,1.2,1.2,0,0,1-.38-1.46,1.33,1.33,0,0,1-.61-0.84c-0.25-1.09.94-2.27,1.9-3.22a5.27,5.27,0,0,0,.81-0.9A18.61,18.61,0,0,0,79,231.86a11.12,11.12,0,0,1,.41-4.5c0.32-.74.38-6.25-1.38-14.26-1.56-7.1-3.27-16.45-3.41-21.4a31.66,31.66,0,0,1,.93-7.64,44.13,44.13,0,0,0,.84-5,33.77,33.77,0,0,0-.31-7.53c-0.12-1-.24-1.91-0.27-2.7-0.08-2.15-.18-2.57-1.42-7.63l-0.47-1.91c-1.57-6.42-2.38-14.15-2.48-23.62-0.08-7.77.7-10.79,1.34-13.22l0.22-.86a32.78,32.78,0,0,0,.79-7c0.06-1.45.31-4.54,0.53-7.27,0.14-1.68.26-3.19,0.31-4a39.52,39.52,0,0,1,.75-4.83c0.14-.69.26-1.35,0.36-1.92a16.54,16.54,0,0,0-.61-5.89C74.8,89.81,74,85.33,74,85.13l0.08-.2-0.22-.17c-0.44,1.43-2.2,7.26-2.61,9.09-0.11.49-.2,1.06-0.29,1.67-0.32,2-.72,4.53-2.07,5.87a12.49,12.49,0,0,0-1.38,3.79,31.33,31.33,0,0,1-2.41,6.65c-2.13,3.76-8.17,15-8.62,16.43a11,11,0,0,1-1,6.92c-1.11,2.62-1.8,4.45-1.84,5.49V141c0,1.73-.14,5.79-1.89,5.79a1.05,1.05,0,0,1-.85-0.36c-0.33-.42-0.26-1.13,0-2.23a9.87,9.87,0,0,0,.14-2.42c-0.17.85-.33,1.4-0.34,1.43a16.23,16.23,0,0,1-.67,3.33,5.89,5.89,0,0,1-1.23,3.59,1.19,1.19,0,0,1-.85.42,1,1,0,0,1-.47-0.12c-1-.51-0.76-1.61-0.43-3.44l0-.22a32.65,32.65,0,0,0,.43-3.51v-0.14a5.64,5.64,0,0,1-.3.51c0.14,1-.9,2.9-1,3.12,0,0.34-.06,4.41-1.86,4.41h0a1.48,1.48,0,0,1-1.2-.42,1.82,1.82,0,0,1-.3-1.49c0-.23.11-0.68,0.22-1.24a28.57,28.57,0,0,0,.53-3.55c0-.33,0-0.62,0-0.89a4.55,4.55,0,0,1-.42.81A4.72,4.72,0,0,1,42,147.37a1.48,1.48,0,0,1-1.09.57,1.34,1.34,0,0,1-1-.42,2,2,0,0,1-.14-1.52c0-.17,0-0.35.06-0.53a36.75,36.75,0,0,1,.75-3.68l0.18-.77a15.3,15.3,0,0,1,.76-2,17.09,17.09,0,0,0,.7-1.77,17.2,17.2,0,0,0,.3-3.4l-0.24.16a3.29,3.29,0,0,1-1.31.63,5.76,5.76,0,0,1-3.59,1.93,2.18,2.18,0,0,1-.75-0.13,1.53,1.53,0,0,1-1.2-1.26,1.25,1.25,0,0,1,.87-1.13,6.24,6.24,0,0,0,1.46-1.13,5.65,5.65,0,0,1,1.65-1.22,7,7,0,0,0,1.67-1.35,9.36,9.36,0,0,1,2.38-1.87,25.85,25.85,0,0,0,4.68-3.38,7,7,0,0,0,.57-1.54,17.37,17.37,0,0,1,1.37-3.65c0.63-.94,2.31-3.44,3.59-11.35,1.25-7.71,2.2-10.35,4.62-14.89,2.16-4,3.42-7.93,3.46-10.68a62.14,62.14,0,0,1,1.11-7.57c0.19-1,.34-1.85.4-2.27a15.31,15.31,0,0,0,0-2.25,22.22,22.22,0,0,1,.23-6.13c0.72-2.89,2.55-6.13,4.16-7.38a22.1,22.1,0,0,1,3.57-2,13.94,13.94,0,0,0,1.82-1,2.71,2.71,0,0,1,1.14-.58,9.56,9.56,0,0,0,1.22-.43,32.88,32.88,0,0,0,3.54-2,33.58,33.58,0,0,1,3.17-1.85,15.25,15.25,0,0,0,2.95-1.92c0-.5,0-2.42.09-3.67a15.41,15.41,0,0,0-.62-4c-0.39-.09-1.28-0.48-1.76-2.18a12.43,12.43,0,0,1-.45-3.09,4.79,4.79,0,0,0-.09-0.94,1.88,1.88,0,0,1,0-1.47A0.56,0.56,0,0,1,82.68,32h0.59c0-.63,0-2.56,0-2.87,0-.5,0-0.89,0-1.22,0-1.13,0-1.75,1-4.21a10,10,0,0,1,8.49-5.8,9.07,9.07,0,0,1,7,2.89,9.9,9.9,0,0,1,3.3,5.41,43.13,43.13,0,0,1-.06,5.83l0.3,0a0.6,0.6,0,0,1,.53.21,1.88,1.88,0,0,1,0,1.46,5.1,5.1,0,0,0-.08.93,12.36,12.36,0,0,1-.45,3.1c-0.48,1.71-1.37,2.1-1.76,2.18a15.37,15.37,0,0,0-.62,4c0.12,1.25.1,3.17,0.09,3.67A15.25,15.25,0,0,0,104,49.46a33.82,33.82,0,0,1,3.16,1.84,32.83,32.83,0,0,0,3.55,2,9.59,9.59,0,0,0,1.22.43,2.78,2.78,0,0,1,1.14.58,13.54,13.54,0,0,0,1.83,1,22.51,22.51,0,0,1,3.57,2c1.61,1.25,3.43,4.49,4.16,7.38a22.37,22.37,0,0,1,.22,6.14,15.64,15.64,0,0,0,0,2.25c0.05,0.41.21,1.21,0.39,2.21A63.25,63.25,0,0,1,124.3,83c0,2.75,1.31,6.64,3.47,10.68,2.42,4.54,3.37,7.18,4.62,14.89,1.28,7.91,3,10.41,3.58,11.35a17.19,17.19,0,0,1,1.37,3.64,12,12,0,0,0,.5,1.5,31,31,0,0,0,4.74,3.44,9.37,9.37,0,0,1,2.39,1.87,6.94,6.94,0,0,0,1.67,1.35,5.69,5.69,0,0,1,1.65,1.22,6.28,6.28,0,0,0,1.46,1.13,1.26,1.26,0,0,1,.88,1.13,1.54,1.54,0,0,1-1.2,1.26,2.18,2.18,0,0,1-.75.13c-1.46,0-3-1.25-3.74-2h0a3,3,0,0,1-1.12-.56l-0.25-.16a17.4,17.4,0,0,0,.3,3.4,16.5,16.5,0,0,0,.7,1.77,14.8,14.8,0,0,1,.76,2l0.19,0.81a35.81,35.81,0,0,1,.74,3.64c0,0.18,0,.36.07,0.53a2,2,0,0,1-.14,1.53,1.23,1.23,0,0,1-.9.42h0a1.49,1.49,0,0,1-1.18-.56,5.16,5.16,0,0,1-1.14-3.11,3.17,3.17,0,0,1-.38-0.67c0,0.29,0,.59,0,0.92a28.4,28.4,0,0,0,.53,3.52c0.11,0.57.19,1,.22,1.26a1.86,1.86,0,0,1-.3,1.5,1.4,1.4,0,0,1-1.09.41c-1.91,0-2-4.07-2-4.53a6.45,6.45,0,0,1-1-3c-0.11-.17-0.21-0.34-0.3-0.51v0.13a32.14,32.14,0,0,0,.43,3.51l0,0.22c0.33,1.83.53,2.94-.44,3.45a1,1,0,0,1-.46.12,1.18,1.18,0,0,1-.85-0.42,6.07,6.07,0,0,1-1.25-3.68,15.76,15.76,0,0,1-.66-3.28s-0.16-.55-0.33-1.4a9.91,9.91,0,0,0,.14,2.43c0.22,1.1.29,1.81,0,2.23a1,1,0,0,1-.81.36c-1.57,0-1.84-2.92-1.92-5.77v-0.39c0-1-.73-2.87-1.84-5.49a9.55,9.55,0,0,1-.57-6.53c-0.29-.85-3.3-6.3-5.71-10.68-1.39-2.53-2.68-4.85-3.34-6.14a32.49,32.49,0,0,1-1.8-4.78,26.9,26.9,0,0,0-2.6-6.31A9.43,9.43,0,0,1,115.53,97a17.3,17.3,0,0,0-.66-3.09c-0.54-1.56-1.82-6.17-2.41-8.32-0.18,1.16-.51,3-1,5a17.46,17.46,0,0,0-.12,8.13,21.13,21.13,0,0,1,.35,4.23c0,1,0,1.94.13,2.64,0.05,0.38.15,1,.29,1.74,0.48,2.79,1.29,7.46,1,10a13.11,13.11,0,0,0,.7,5.5c0.21,0.73.42,1.49,0.6,2.32,2.36,17.08-1,31.81-2.65,38.89a23.93,23.93,0,0,0-.77,4.06,22.32,22.32,0,0,1-.47,4.72A25.07,25.07,0,0,0,110,177a34.25,34.25,0,0,0,.94,5.68c0.36,1.68.76,3.57,1.07,5.54,0.7,4.57-2.63,21.17-4.13,27.33a31,31,0,0,0-.59,11.91,5.35,5.35,0,0,0,.28.83,3.09,3.09,0,0,1,.18,2.42,3.3,3.3,0,0,0,0,2.67,6.7,6.7,0,0,1,.25,1.78,6.11,6.11,0,0,0,.16,1.34,24.19,24.19,0,0,0,1.79,2.67c0.42,0.58.78,1.08,0.91,1.3A1.79,1.79,0,0,1,111,242a1,1,0,0,1-.38.5,1.31,1.31,0,0,1-1.51,1.71h-0.2a1.47,1.47,0,0,1-1.59,1.1l-0.35,0A1.14,1.14,0,0,1,105.91,245.74Z"/><g class="cls-7"><path class="cls-8" d="M94.33,58.69a2,2,0,0,0,1.06.66,12.22,12.22,0,0,0,1.9.81,7.16,7.16,0,0,0,2.29.51h1.5c0.44,0,.7-0.15,1.14-0.15,0.69,0,1.1.16,1.79,0.22a9,9,0,0,0,2-.07"/><path class="cls-8" d="M91.91,55.93a5.53,5.53,0,0,1,2.64-1.46"/><path class="cls-8" d="M91,57.32a13,13,0,0,1,2.42.62c0.35,0.13.53,0.29,0.88,0.44"/><path class="cls-8" d="M94.69,59.06a7.61,7.61,0,0,0,2.23-.66,12.61,12.61,0,0,1,2.64-.22"/><path class="cls-8" d="M92.42,43.86a17.74,17.74,0,0,1-1.32,3.08"/><path class="cls-8" d="M93,45.91a2.78,2.78,0,0,1-.59,1.1A6.28,6.28,0,0,1,91,48.77"/><path class="cls-8" d="M93.23,48.11A3.28,3.28,0,0,1,92,49.58"/><path class="cls-8" d="M94.47,48.77a3.29,3.29,0,0,0,1.65,1.72"/><path class="cls-8" d="M94.4,47.31a8.17,8.17,0,0,0,2,1.69"/><path class="cls-8" d="M94.33,46a14.42,14.42,0,0,0,1.94,1.1,7.69,7.69,0,0,0,.88.44"/><path class="cls-8" d="M94.25,44.52a14.65,14.65,0,0,0,2,1.17"/><line class="cls-9" x1="92.6" y1="63.86" x2="89.7" y2="64.87"/><path class="cls-8" d="M94.33,61.11S76,62.27,79.14,68.49c0,0,2.17,3,8,3.76"/><path class="cls-8" d="M93.61,63.57s-18.37,1.16-15.19,7.38a17.32,17.32,0,0,0,7,4"/><path class="cls-8" d="M93.61,66.47s-19,1.16-15.77,7.38c0,0,1.52,2.39,6.15,3.83"/><path class="cls-8" d="M93.47,69.94s-19,1.16-15.77,7.38c0,0,1.45,1.81,6.08,3.26"/><path class="cls-8" d="M93.9,73.41s-19,1.16-15.77,7.38c0,0,.58,1.45,5.21,2.89"/><path class="cls-8" d="M94.77,76.88S75.81,78,79,84.26c0,0,.58,1.45,5.21,2.89"/><path class="cls-8" d="M95.49,80.07s-19,1.16-15.77,7.38c0,0,.58,1.45,5.21,2.89"/><path class="cls-8" d="M94.62,83.61s-17.22,1.09-14,7.31c0,0,.58,1.45,5.21,2.89"/><path class="cls-8" d="M95.06,87.44s-16.2,1.74-13,8c0,0,1.74,2,5.21.44"/><line class="cls-9" x1="93.61" y1="61.55" x2="90.72" y2="62.56"/><line class="cls-9" x1="93.61" y1="66.54" x2="90.72" y2="67.55"/><line class="cls-9" x1="93.61" y1="70.01" x2="90.72" y2="71.02"/><line class="cls-9" x1="93.61" y1="73.48" x2="90.72" y2="74.49"/><line class="cls-9" x1="93.61" y1="76.96" x2="90.72" y2="77.97"/><line class="cls-9" x1="93.61" y1="80.28" x2="90.72" y2="81.3"/><line class="cls-9" x1="93.61" y1="83.68" x2="90.72" y2="84.7"/><g class="cls-10"><path class="cls-8" d="M93.61,61.11S112,62.27,108.8,68.49c0,0-2.17,3-8,3.76"/></g><path class="cls-8" d="M94.33,63.57s18.37,1.16,15.19,7.38a17.34,17.34,0,0,1-7,4"/><path class="cls-8" d="M94.33,66.47s19,1.16,15.77,7.38c0,0-1.52,2.39-6.15,3.83"/><path class="cls-8" d="M94.48,69.94s19,1.16,15.77,7.38c0,0-1.45,1.81-6.08,3.26"/><path class="cls-8" d="M94,73.41s19,1.16,15.77,7.38c0,0-.58,1.45-5.21,2.89"/><path class="cls-8" d="M93.18,76.88s19,1.16,15.77,7.38c0,0-.58,1.45-5.21,2.89"/><path class="cls-8" d="M92.45,80.07s19,1.16,15.77,7.38c0,0-.58,1.45-5.21,2.89"/><path class="cls-8" d="M93.32,83.61s17.22,1.09,14,7.31c0,0-.58,1.45-5.21,2.89"/><path class="cls-8" d="M92.89,87.44s16.35,0.72,13.17,6.95c0,0-1.73,3.33-5.79,1.3"/><line class="cls-9" x1="94.33" y1="61.55" x2="97.23" y2="62.56"/><line class="cls-9" x1="94.33" y1="66.54" x2="97.23" y2="67.55"/><line class="cls-9" x1="94.33" y1="70.01" x2="97.23" y2="71.02"/><line class="cls-9" x1="94.33" y1="73.48" x2="97.23" y2="74.49"/><line class="cls-9" x1="94.33" y1="76.96" x2="97.23" y2="77.97"/><line class="cls-9" x1="94.33" y1="80.28" x2="97.23" y2="81.3"/><line class="cls-9" x1="94.33" y1="83.68" x2="97.23" y2="84.7"/><path class="cls-8" d="M93.61,91.64s-11.57,1-10.42,5.64c0,0,1.3,2.75,4.77,1.16"/><path class="cls-8" d="M94.19,91.64s11.57,1,10.42,5.64c0,0-1.3,2.75-4.78,1.16"/><path class="cls-8" d="M94.83,97.83a3.07,3.07,0,0,1-1.26,1.8,17.3,17.3,0,0,1-2.15.72c-1.39.63-2.07,1.21-3.37,1.93-2.87,1.62-4.94,2.61-6.73,5.34"/><path class="cls-8" d="M86.36,103.25a7.19,7.19,0,0,0-3.77,4.09c-0.58,1.44-.49,2.83-1.75,3.73"/><path class="cls-8" d="M93.76,101.39c-3.32,1.93-5.52,3.1-7.63,6.24-0.72,1.12-1.26,1.71-2,2.83-0.94,1.48-1.26,2.61-2.11,4.13-1.17,2.11-1.93,3.37-3.23,5.47"/><line class="cls-9" x1="93.58" y1="104.62" x2="84.13" y2="110.59"/><path class="cls-8" d="M93.4,108.89c-2.15,1.17-3.28,2.29-5.52,3.19-0.9.36-1.62,0.31-2.47,0.72-1.57.72-2.2,1.79-3.19,3.19a9.27,9.27,0,0,0-1.44,2.69c-0.4,1.21-.63,2-1.08,3.19"/><path class="cls-8" d="M93.9,103.29c-1,.51-1.19,1.27-1.88,2.1-2.19,2.6-2.53,4.7-5,7.16"/><path class="cls-8" d="M87.82,108.42c-2.71,1.36-2.41,4-3.62,6.66-1.36,3-3.82,3.78-4.63,7.09"/><path class="cls-8" d="M93.61,108c-2.28,1.14-2.89,2.57-4.56,4.41-2.82,3.11-3.85,5.21-6.51,8.54"/><path class="cls-8" d="M93.76,112.11c-3.22,1.61-3.73,3.94-6.66,5.79-1.94,1.21-3.36.88-5.5,2"/><path class="cls-8" d="M94,114.64c-2.24,1.72-4,2.08-6.22,3.76-2.68,2-3.74,4-4.56,7.31"/><path class="cls-8" d="M93.47,117.9c-3.27.45-5.81,1.54-7.44,4.4-2,3.45-.66,10.11-1.44,14.07"/><path class="cls-8" d="M92.74,118.07c-4.41,2.64-6.06,4.89-6.06,10,0,2.12-.74,4,0.06,6"/><path class="cls-8" d="M93.76,122.1a8,8,0,0,0-3.76,4c-0.92,1.68-1.66,2.69-1.66,4.61v0.67"/><path class="cls-8" d="M89.42,101c-3.69,2.93-4.81,5.75-5.93,10.27"/><path class="cls-8" d="M94.12,97.83a3.08,3.08,0,0,0,1.26,1.8,17.19,17.19,0,0,0,2.15.72c1.39,0.63,2.06,1.21,3.37,1.93,2.87,1.62,4.94,2.61,6.74,5.34"/><path class="cls-8" d="M102.59,103.25a7.18,7.18,0,0,1,3.77,4.09c0.58,1.44.5,2.83,1.75,3.73"/><path class="cls-8" d="M95.2,101.39c3.32,1.93,5.52,3.1,7.63,6.24,0.72,1.12,1.26,1.71,2,2.83,0.94,1.48,1.26,2.61,2.11,4.13,1.17,2.11,1.93,3.37,3.23,5.47"/><line class="cls-9" x1="95.38" y1="104.62" x2="104.82" y2="110.59"/><path class="cls-8" d="M95.56,108.89c2.15,1.17,3.28,2.29,5.52,3.19,0.9,0.36,1.62.31,2.47,0.72,1.57,0.72,2.2,1.79,3.19,3.19a9.09,9.09,0,0,1,1.44,2.69c0.4,1.21.63,2,1.08,3.19"/><path class="cls-8" d="M95.06,103.29c1,0.51,1.19,1.27,1.88,2.1,2.19,2.6,2.53,4.7,5,7.16"/><path class="cls-8" d="M101.13,108.42c2.71,1.36,2.4,4,3.62,6.66,1.35,3,3.82,3.78,4.63,7.09"/><path class="cls-8" d="M95.35,108c2.28,1.14,2.89,2.57,4.56,4.41,2.82,3.11,3.85,5.21,6.51,8.54"/><path class="cls-8" d="M95.2,112.11c3.22,1.61,3.72,3.94,6.65,5.79,1.94,1.21,3.37.88,5.5,2"/><path class="cls-8" d="M94.91,114.64c2.24,1.72,4,2.08,6.22,3.76,2.68,2,3.74,4,4.56,7.31"/><path class="cls-8" d="M95.49,117.9c3.27,0.45,5,2.35,6.58,5.21,2,3.45,1.83,5.88,2.6,9.84"/><path class="cls-8" d="M95.35,119.13c4.41,2.64,7.38,5.66,7.38,10.74,0,2.12-.58,3.24-1.37,5.24"/><path class="cls-8" d="M95.2,122.1a8,8,0,0,1,3.76,4c0.92,1.68,1.66,2.69,1.66,4.61v0.67"/><path class="cls-8" d="M99.54,101c3.69,2.93,4.81,5.75,5.93,10.27"/><path class="cls-11" d="M86.15,124.39a31.35,31.35,0,0,0-1.53,7.84,181,181,0,0,0-1.3,19.21c-0.14,12.4.4,19.07-1.46,31.25-0.75,4.9-2.11,7.47-2.75,12.35-0.67,5.12.27,8,.49,13.22s1.27,8.67-.67,13.58c-1.81,4.56-3.68,7.13-3.63,12.1a0.29,0.29,0,1,1-.58,0c0-5.06,1.83-7.68,3.67-12.32,1.91-4.83.87-8.11,0.63-13.35s-1.16-8.17-.48-13.32c0.64-4.88,2-7.46,2.75-12.36,1.86-12.15,1.32-18.8,1.46-31.17,0.06-7.43-1.12-11.42-.38-18.75,0.36-3.67.42-12.83,0.83-9.31C83.88,129.12,86.44,124.14,86.15,124.39Z"/><path class="cls-11" d="M83.86,138.12c0,12.8,4.63,19.51,4.56,32.1a55.24,55.24,0,0,1-.36,9.2,35.84,35.84,0,0,1-3.42,11.22c-1.55,3.32-3,5.12-3.47,8.73-0.55,4.06.81,6.45,1.5,10.52,0.76,4.47-1.62,7-2.81,11.31A25.1,25.1,0,0,0,79,228.9a0.29,0.29,0,0,1-.58,0A25.67,25.67,0,0,1,79.3,221c1.17-4.26,3.54-6.69,2.8-11.06-0.7-4.13-2.06-6.57-1.5-10.69,0.49-3.67,1.95-5.52,3.52-8.89a35.4,35.4,0,0,0,3.37-11.06,54.85,54.85,0,0,0,.35-9.12c0.07-12.59-4.52-19.3-4.56-32.1A0.29,0.29,0,1,1,83.86,138.12Z"/><path class="cls-11" d="M83.43,144.46c-2.56,6.58-7.22,10-6.05,16.87a0.29,0.29,0,1,1-.57.1c-1.19-7,3.48-10.48,6.08-17.18A0.29,0.29,0,1,1,83.43,144.46Z"/><path class="cls-11" d="M77.61,156.29c0.62,2.58,2,3.75,2.4,6.37s-0.64,4.25-.72,7.06a0.29,0.29,0,0,1-.58,0c0.08-2.78,1.07-4.26.72-7S77.66,159,77,156.43A0.29,0.29,0,0,1,77.61,156.29Z"/><path class="cls-11" d="M78,154.32c-1.09.5-2,.74-2.62,1.81a0.29,0.29,0,1,1-.51-0.28c0.65-1.19,1.67-1.5,2.89-2.06A0.29,0.29,0,1,1,78,154.32Z"/><path class="cls-11" d="M79.78,151.55c0.07,3.84,2.89,5.32,4.15,8.89a51.38,51.38,0,0,1,2.39,9.77,0.29,0.29,0,0,1-.57.1,50.9,50.9,0,0,0-2.37-9.68c-1.28-3.63-4.11-5.16-4.18-9.07A0.29,0.29,0,0,1,79.78,151.55Z"/><path class="cls-11" d="M79.25,119.09c-1.28,2.25-1.3,3.81-1.81,6.39-1.22,6.08-1.13,10.06,1.36,15.74,1.91,4.36,4.75,5.75,7,10,2.55,4.79,2.41,8.07,2.73,13.45,0.27,4.22.29,6.82-1.3,10.76-2.58,6.27-4.65,9.61-5,16.31-0.17,3.32,1.13,5.15,1.14,8.45,0,7.12-4.39,10.45-5.09,17.62-0.37,4.05,2,6.1,2,10.19a0.29,0.29,0,0,1-.58,0c0-4.11-2.4-6.18-2-10.25,0.69-7.15,5.12-10.46,5.09-17.56,0-3.31-1.31-5.14-1.14-8.48,0.33-6.77,2.4-10.15,5-16.5,1.56-3.85,1.52-6.38,1.26-10.51-0.31-5.29-.16-8.52-2.67-13.22-2.22-4.22-5.06-5.61-7-10-2.54-5.8-2.64-9.86-1.39-16.08,0.52-2.66.55-4.25,1.87-6.57A0.29,0.29,0,0,1,79.25,119.09Z"/><path class="cls-11" d="M100.61,125.15c2.42,4.08,2.41,6.18,4,10.44,0.69,2,.85,3.12,1.4,5.12,2.93,10.56,1.73,17.83.83,28.86-0.54,6.86-1.37,10.41-2.2,17.29-0.93,7.49-.3,11.57-0.18,19,0.08,5.42-2.11,8.24-2.91,13.61-0.91,6.09,1.14,9.84,4.29,15.16a0.29,0.29,0,1,1-.5.29c-3.23-5.45-5.3-9.3-4.37-15.54,0.79-5.34,3-8.14,2.91-13.52-0.12-7.44-.75-11.54.18-19.06,0.83-6.87,1.65-10.42,2.2-17.27,0.89-10.94,1.72-17.33-1.19-27.81-0.55-2-1.13-3-1.81-4.92-1.54-4.22-6.6-14.8-4.4-10.65C101.49,131.18,100.41,124.82,100.61,125.15Z"/><path class="cls-11" d="M103.06,117.32c4.65,9.54,6.09,15.71,5,26.19-0.29,2.91-1.69,4.19-2.54,6.92-2.8,8.95-4.28,14.43-3.58,23.81,0.54,7.25.5,11.63-1.39,18.62-1.07,4-1.68,6.45-1.37,10.6,0.66,8.87,3.77,13.58,4.43,22.45a0.29,0.29,0,0,1-.58,0c-0.66-8.87-3.76-13.58-4.42-22.45-0.31-4.22.3-6.72,1.39-10.79,1.87-6.92,1.91-11.25,1.37-18.43-0.7-9.46.77-15,3.6-24,0.84-2.69,2.23-3.94,2.53-6.81,1.07-10.35-.36-16.45-5-25.88A0.29,0.29,0,0,1,103.06,117.32Z"/><path class="cls-11" d="M102.14,130.45c1.54,3.18,2,5.14,3.64,8.13,4.34,7.66,6.74,13.56,4.71,22.2-2.44,10.45-5.59,16.32-4.8,27,0.64,8.61,1.62,13.52.33,22.09-1.21,8-2.93,12.67-1.36,20.6,0.58,3,4.14,2.7,5.87,5.26a0.29,0.29,0,1,1-.48.32c-1.78-2.62-5.36-2.35-6-5.47-1.58-8,.14-12.77,1.36-20.8,1.28-8.52.3-13.4-.33-22-0.8-10.71,2.36-16.62,4.82-27.14,2-8.48-.39-14.27-4.65-21.79-1.68-3-2.12-5-3.66-8.16A0.29,0.29,0,0,1,102.14,130.45Z"/><path class="cls-11" d="M105.28,117.9c2.73,6.58,5.85,11.08,3.64,17.77-1.92,5.88-5.74,8.19-7.66,14.06-1.38,4.24-1.17,7-1.16,11.46,0,4.24-.66,6.67-0.35,10.89,0.93,12.45,2.74,19.36,2.66,31.89,0,4.14,1.09,6.38.93,10.53-0.11,3.46-.66,5.32-0.95,8.79a0.29,0.29,0,0,1-.58,0c0.29-3.46.84-5.31,0.94-8.76,0.16-4.14-.95-6.38-0.92-10.52,0.08-12.51-1.73-19.41-2.66-31.84-0.31-4.23.34-6.68,0.35-10.93,0-4.57-.21-7.33,1.19-11.64,1.92-5.87,5.74-8.19,7.66-14.06,2.17-6.55-1-10.93-3.62-17.37A0.29,0.29,0,1,1,105.28,117.9Z"/><path class="cls-11" d="M79,61.11c5,0,9.37.35,14-1.45a0.29,0.29,0,0,1,.21.54C88.5,62,84,61.69,79,61.69A0.29,0.29,0,1,1,79,61.11Z"/><path class="cls-12" d="M137.42,130.58a0.27,0.27,0,0,0-.31-0.12,69.69,69.69,0,0,0-3.64-12.94c-1.67-4.66-1-8-3.69-12.06-2.34-3.44-4.85-4.17-7.17-7.86a0.28,0.28,0,0,0-.3-0.13c-0.9-3.34-1.62-6-2.63-9.89-1.61-6.35-.37-10.33-2.23-16.65a36.25,36.25,0,0,0-1.87-5,0.26,0.26,0,0,0-.08-0.18c-0.41-.91-0.85-1.83-1.33-2.88a17.65,17.65,0,0,1,2.6,2.87c4.45,6.11,3.23,11.8,4.46,18.24a20.44,20.44,0,0,1-.37,4.42,0.27,0.27,0,0,0,0,.3,10.93,10.93,0,0,0,0,1.29,0.29,0.29,0,0,0,.58-0.06,24.77,24.77,0,0,0,1.86,2.68,0.28,0.28,0,0,0,.15.2c0.3,0.4.61,0.82,0.91,1.28a3.84,3.84,0,0,0-.1,2.91,0.29,0.29,0,1,0,.53-0.23,2.71,2.71,0,0,1,0-2c0.15,0.25.29,0.52,0.44,0.8a0.29,0.29,0,1,0,.51-0.27c-0.25-.49-0.51-0.92-0.76-1.32a0.26,0.26,0,0,0-.09-0.14c-0.2-.31-0.41-0.6-0.61-0.87,0.54,0.13,1,.32,1.63.52a0.29,0.29,0,1,0,.16-0.55,12.21,12.21,0,0,0-2.29-.63,18.1,18.1,0,0,1-2.35-3.68c0.05-.86.22-1.61,0.32-2.42a22.74,22.74,0,0,0,1.1,3,0.29,0.29,0,1,0,.53-0.23l-0.19-.44a1.63,1.63,0,0,1,1.22.72,0.29,0.29,0,1,0,.47-0.34A2.14,2.14,0,0,0,123,88,24.29,24.29,0,0,1,121.81,84a0.55,0.55,0,0,0,0-.13c-1.3-6.54,0-12.31-4.54-18.5a18,18,0,0,0-3.6-3.71,0.29,0.29,0,0,0-.26-0.2,26.79,26.79,0,0,0-7.71-3.74,0.28,0.28,0,0,0-.23-0.13h-0.18c-1.94-.62-4.19-1.15-6.5-1.73a0.29,0.29,0,0,0-.53-0.14h0c-1.24-.32-2.49-0.66-3.72-1,1.69-.24-2.24-0.29-0.58-0.2,0.39,0,.39-0.25,0-0.27-2.06-.11,1.07-0.25-0.77,0l-0.13,0a1.93,1.93,0,0,0,.7-0.25c1.76-.55-1.73.85,0,0,0.35-.17,0-0.35-0.34-0.18-2.28,1.12,1.44-.51-1.2.11-1-.37,3.16.63,2.26,0.16-0.34-.18-0.87,0-0.53.18,0.65,0.34-3.35-.44-2.44-0.17-2.75.63-5.48,1.14-7.78,1.8H83.52a0.27,0.27,0,0,0-.24.12,26.76,26.76,0,0,0-7.82,3.5,0.29,0.29,0,0,0-.27.19,17.87,17.87,0,0,0-3.71,3.6c-4.7,6.05-3.61,11.86-5.11,18.36a0.48,0.48,0,0,0,0,.13,24.17,24.17,0,0,1-1.26,3.89,2.15,2.15,0,0,0-1.95.91,0.29,0.29,0,1,0,.46.36,1.63,1.63,0,0,1,1.24-.69l-0.2.44a0.29,0.29,0,1,0,.52.25,23.07,23.07,0,0,0,1.19-3c0.08,0.81.23,1.56,0.25,2.43A18.08,18.08,0,0,1,64.13,90a12.46,12.46,0,0,0-2.31.56,0.29,0.29,0,1,0,.14.56c0.66-.17,1.1-0.35,1.64-0.46-0.21.27-.42,0.55-0.63,0.86a0.25,0.25,0,0,0-.09.13c-0.27.39-.54,0.82-0.8,1.3a0.29,0.29,0,1,0,.5.28c0.15-.28.31-0.54,0.46-0.78a2.7,2.7,0,0,1-.08,2,0.29,0.29,0,0,0,.52.25,3.83,3.83,0,0,0,0-2.92c0.32-.45.63-0.86,0.95-1.25a0.27,0.27,0,0,0,.16-0.2,23.94,23.94,0,0,0,1.94-2.62,0.29,0.29,0,0,0,.57.07,10.28,10.28,0,0,0,.08-1.28,0.27,0.27,0,0,0,0-.3,20.34,20.34,0,0,1-.23-4.42c1.42-6.4.38-12.12,5-18.1a17.56,17.56,0,0,1,2.69-2.79c-0.51,1-1,1.94-1.42,2.84a0.27,0.27,0,0,0-.09.18,37.28,37.28,0,0,0-2,4.93c-2.05,6.27-.93,10.28-2.73,16.58-1.13,3.89-1.93,6.5-2.93,9.8a0.27,0.27,0,0,0-.3.13c-2.44,3.62-5,4.28-7.4,7.64-2.86,4-2.25,7.34-4.06,11.94a69.47,69.47,0,0,0-4,12.83,0.27,0.27,0,0,0-.32.11,3.31,3.31,0,0,0-.81,1.48,0.29,0.29,0,0,0,.57.11,1.84,1.84,0,0,1,.4-0.84c-0.17,1-.33,2-0.48,3.15a0.29,0.29,0,1,0,.57.07c0.87-6.68,2.18-10.36,4.63-16.69,1.79-4.56,1.16-7.9,4-11.81,2.26-3.12,4.6-3.92,6.87-6.9L64.5,98.33c-2,6.72-5.6,9.49-8.88,15.72a43.74,43.74,0,0,0-4.87,14.44,0.31,0.31,0,0,0-.07.4c-0.29,1.78-.55,3.69-0.82,5.82a0.29,0.29,0,0,0,.57.07l0.07-.52a3.77,3.77,0,0,0,1,2.15,0.29,0.29,0,1,0,.36-0.45c-0.88-.7-0.61-1.66-1.25-2.72,0.17-1.27.33-2.46,0.51-3.6a3.58,3.58,0,0,0,.5.45,0.34,0.34,0,0,0,0,.11c-0.17,1.3-.56,2.14,0,3.36a0.29,0.29,0,0,0,.53-0.23c-0.46-1.05-.12-1.8,0-2.89,1,0.62,2.05,1.06,1.9,2.27a0.29,0.29,0,0,0,.58.07c0.26-2-2.52-2.08-3.35-4a43.41,43.41,0,0,1,4.85-14.5c3.3-6.26,6.88-9.06,8.92-15.82,1.49-5,2.41-7.9,3.86-12.93,1.8-6.29.68-10.3,2.73-16.56a36.29,36.29,0,0,1,2-4.85c1.36-.51,1.82-1.32,3.08-2a17.52,17.52,0,0,1,3.67-1.48c-0.33.28-.68,0.55-1.07,0.82-7,7.2-6.13,14.57-8.48,24.43-1.21,5.09-2.36,7.78-3.84,12.76-2.17,7.19-6.94,9.66-9.74,16.66-1.76,4.42-1.72,7.8-1.84,11.76a6.84,6.84,0,0,0-1,2.66,0.29,0.29,0,0,0,.57.12,10.76,10.76,0,0,1,.37-1.4c-0.06,1.25-.15,2.57-0.34,4a0.29,0.29,0,1,0,.57.07,52.48,52.48,0,0,0,.38-5.27,0.27,0.27,0,0,0,0-.22c0.11-3.86.08-7.18,1.81-11.51,2.81-7,7.58-9.5,9.76-16.7,1.49-5,2.64-7.69,3.85-12.8,2.31-9.74,1.42-17,8.34-24.17a14.77,14.77,0,0,0,1.74-1.44,16.67,16.67,0,0,1,3.64-.14c2.41,0.13,3.79-.49,6.09-1.21l0.37-.1L92,59.14c1.21,0.77,4,.92,5.67,1.49,2.28,0.79,3.64,1.45,6.05,1.39a16.61,16.61,0,0,1,3.63.25,14.94,14.94,0,0,0,1.7,1.49c6.7,7.34,5.58,14.61,7.6,24.42,1.05,5.14,2.13,7.87,3.46,12.91,2,7.27,6.65,9.9,9.24,17,1.59,4.38,1.46,7.7,1.46,11.56a0.28,0.28,0,0,0,0,.22,52.45,52.45,0,0,0,.22,5.28,0.29,0.29,0,1,0,.58-0.06c-0.14-1.44-.19-2.76-0.22-4a10,10,0,0,1,.32,1.41,0.29,0.29,0,0,0,.57-0.1,6.84,6.84,0,0,0-.91-2.68c0-4,.15-7.34-1.48-11.81-2.58-7.08-7.28-9.7-9.23-16.95-1.33-5-2.4-7.75-3.45-12.87-2-9.93-1-17.26-7.73-24.68-0.37-.28-0.72-0.56-1-0.85a17.65,17.65,0,0,1,3.63,1.59c1.24,0.68,1.67,1.5,3,2.06a37.24,37.24,0,0,1,1.83,4.91c1.86,6.32.61,10.29,2.22,16.64,1.3,5.07,2.13,8,3.47,13,1.84,6.82,5.33,9.72,8.44,16.08a43.41,43.41,0,0,1,4.41,14.64c-0.89,1.84-3.67,1.84-3.47,3.84a0.29,0.29,0,1,0,.58-0.06c-0.12-1.22.95-1.63,2-2.21,0.13,1.09.45,1.85,0,2.89a0.29,0.29,0,1,0,.52.25c0.57-1.2.2-2.05,0.07-3.36a0.29,0.29,0,0,0,0-.11,3.43,3.43,0,0,0,.51-0.43c0.15,1.15.27,2.34,0.4,3.62-0.68,1-.43,2-1.33,2.68a0.29,0.29,0,1,0,.34.46,3.78,3.78,0,0,0,1.1-2.12l0.05,0.52a0.29,0.29,0,0,0,.58-0.06c-0.21-2.13-.41-4-0.65-5.84a0.31,0.31,0,0,0-.05-0.4,43.73,43.73,0,0,0-4.43-14.58c-3.09-6.33-6.57-9.21-8.4-16l-0.51-1.93c2.18,3,4.49,3.91,6.66,7.1,2.71,4,2,7.32,3.63,11.93,2.26,6.4,3.46,10.12,4.12,16.82a0.29,0.29,0,1,0,.58-0.06c-0.11-1.13-.24-2.17-0.38-3.16a1.89,1.89,0,0,1,.37.85,0.29,0.29,0,0,0,.57-0.09A3.36,3.36,0,0,0,137.42,130.58Zm-38.1-74a0.28,0.28,0,0,0,.17-0.07c1.37,0.4,2.73.77,4.07,1.17-0.38,0-.76.07-1.12,0.11-1.28-.47-2.33-0.79-3.35-1.19Zm-1,.29h-0.1L98,56.93l0.13-.14Zm-6.45,1.49a5,5,0,0,1-.7-0.71,13.56,13.56,0,0,0,2.48.22C93.09,58,92.49,58.18,91.87,58.35ZM90.66,57a0.27,0.27,0,0,0-.25,0c-1-.19-1.92-0.4-2.75-0.57,0.87-.28,1.64-0.51,2.39-0.78,2.56,0.08,5.32.82,7.52,1a4.86,4.86,0,0,1-.85.7A17.06,17.06,0,0,1,90.66,57Zm5-1.68c0.31,0.24.55,0.41,0.78,0.56-1.3-.24-3.17-0.6-5-0.77,0.79,0,1.65-.15,2.55-0.28C94.63,55,95.19,55.12,95.66,55.29Zm-6.17-.34a0.29,0.29,0,0,0,.09,0H89.35a0.27,0.27,0,0,0-.27.34c-0.79.25-1.62,0.49-2.58,0.82C86.14,56.08,85.77,56,85.39,56,86.73,55.63,88.11,55.3,89.49,54.94Zm-8.23,5a16.22,16.22,0,0,0-4.81,1.75c-1,.52-1.51,1.17-2.42,1.66,0.5-1,1-2,1.63-3.26a26,26,0,0,1,8-3.6,16.58,16.58,0,0,1,1.79.09A16.23,16.23,0,0,0,81.26,59.93Zm3.9-.17a19.12,19.12,0,0,0-3,0,10.91,10.91,0,0,1,4.38-3.08c1.34,0.21,2.57.52,3.78,0.77a5.94,5.94,0,0,0,.55.73l-0.18-.07a0.29,0.29,0,1,0-.21.54l0.1,0A13.36,13.36,0,0,1,85.15,59.76Zm7.94-1a12.8,12.8,0,0,0,3.84-.92,11,11,0,0,0,1.48-.41A0.29,0.29,0,0,0,98.53,57c0.86,0.36,1.74.65,2.74,1C98.92,58.36,95.72,59,93.09,58.74Zm10.59,2.7c-2.34.05-3.65-.59-5.85-1.36-0.93-.32-1.79-0.53-2.58-0.8,2.41,0.11,4.57-.6,7.12-0.92a10.9,10.9,0,0,1,4.28,3.22A18.93,18.93,0,0,0,103.68,61.44Zm8.64,2.18a16.19,16.19,0,0,0-4.75-1.89,16.3,16.3,0,0,0-4-3.48,16.89,16.89,0,0,1,1.79,0A26,26,0,0,1,113.16,62c0.56,1.25,1.07,2.3,1.53,3.3C113.8,64.83,113.34,64.17,112.33,63.61Z"/></g></g><path class="cls-13" d="M101,28.32c0-4-2.51-8.11-7.31-8.41-0.26,0-.23.44-0.5,0.44s-0.37-.41-0.54-0.4c-4.12.25-6.64,3-7.08,7a12.58,12.58,0,0,0,0,2.15l0,0h0c0,0.3,0,.62,0,1a1.26,1.26,0,0,0,1.29,1.11c1.3,1.69,2.65,3,4.56,3.42v2.94a21.46,21.46,0,0,0,1,7c0.36,1.21.28,2.13,0.58,3.12v58.48c0,1,.42,21.73.94,21.73s0.94-20.76.94-21.73V46.46a3.15,3.15,0,0,0-.09-0.75,51.55,51.55,0,0,1-.53-5.14V36.68a11,11,0,0,1,.09-1.38c2.56,0,4.39-1.83,5.2-4.23A2.84,2.84,0,0,0,101,28.32Z"/></g></g></svg>