<svg xmlns="http://www.w3.org/2000/svg" viewBox="0 0 9.46 9.46"><defs><style>.cls-1{isolation:isolate;}.cls-2{mix-blend-mode:multiply;}.cls-3{fill:#ecbfbd;opacity:0;}.cls-4{fill:#ecbcb9;opacity:0.04;}.cls-5{fill:#ecb8b4;opacity:0.07;}.cls-6{fill:#ebb5af;opacity:0.11;}.cls-7{fill:#ebb2aa;opacity:0.15;}.cls-8{fill:#ebafa6;opacity:0.19;}.cls-9{fill:#ebaca1;opacity:0.22;}.cls-10{fill:#eaa99c;opacity:0.26;}.cls-11{fill:#eaa698;opacity:0.3;}.cls-12{fill:#eaa293;opacity:0.33;}.cls-13{fill:#e99f8f;opacity:0.37;}.cls-14{fill:#e99c8a;opacity:0.41;}.cls-15{fill:#e99986;opacity:0.44;}.cls-16{fill:#e89782;opacity:0.48;}.cls-17{fill:#e8947e;opacity:0.52;}.cls-18{fill:#e8917a;opacity:0.56;}.cls-19{fill:#e78e76;opacity:0.59;}.cls-20{fill:#e78b72;opacity:0.63;}.cls-21{fill:#e7886e;opacity:0.67;}.cls-22{fill:#e6856b;opacity:0.7;}.cls-23{fill:#e68367;opacity:0.74;}.cls-24{fill:#e68063;opacity:0.78;}.cls-25{fill:#e57d5f;opacity:0.81;}.cls-26{fill:#e57a5c;opacity:0.85;}.cls-27{fill:#e57758;opacity:0.89;}.cls-28{fill:#e47454;opacity:0.93;}.cls-29{fill:#e47150;opacity:0.96;}.cls-30{fill:#e46e4c;}</style></defs><title>orangeDot</title><g class="cls-1"><g id="Background"><g class="cls-2"><circle class="cls-3" cx="4.73" cy="4.73" r="4.73"/><circle class="cls-4" cx="4.73" cy="4.73" r="4.65"/><circle class="cls-5" cx="4.73" cy="4.73" r="4.57"/><circle class="cls-6" cx="4.73" cy="4.73" r="4.48"/><circle class="cls-7" cx="4.73" cy="4.73" r="4.4"/><circle class="cls-8" cx="4.73" cy="4.73" r="4.32"/><circle class="cls-9" cx="4.73" cy="4.73" r="4.24"/><circle class="cls-10" cx="4.73" cy="4.73" r="4.16"/><circle class="cls-11" cx="4.73" cy="4.73" r="4.08"/><circle class="cls-12" cx="4.73" cy="4.73" r="4"/><circle class="cls-13" cx="4.73" cy="4.73" r="3.91"/><circle class="cls-14" cx="4.73" cy="4.73" r="3.83"/><circle class="cls-15" cx="4.73" cy="4.73" r="3.75"/><circle class="cls-16" cx="4.73" cy="4.73" r="3.67"/><circle class="cls-17" cx="4.73" cy="4.73" r="3.59"/><circle class="cls-18" cx="4.73" cy="4.73" r="3.51"/><circle class="cls-19" cx="4.73" cy="4.73" r="3.43"/><circle class="cls-20" cx="4.73" cy="4.73" r="3.35"/><circle class="cls-21" cx="4.73" cy="4.73" r="3.26"/><circle class="cls-22" cx="4.73" cy="4.73" r="3.18"/><circle class="cls-23" cx="4.73" cy="4.73" r="3.1"/><circle class="cls-24" cx="4.73" cy="4.73" r="3.02"/><circle class="cls-25" cx="4.73" cy="4.73" r="2.94"/><circle class="cls-26" cx="4.73" cy="4.73" r="2.86"/><circle class="cls-27" cx="4.73" cy="4.73" r="2.78"/><circle class="cls-28" cx="4.73" cy="4.73" r="2.69"/><circle class="cls-29" cx="4.73" cy="4.73" r="2.61"/><circle class="cls-30" cx="4.73" cy="4.73" r="2.53"/></g></g></g></svg>