<svg xmlns="http://www.w3.org/2000/svg" xmlns:xlink="http://www.w3.org/1999/xlink" viewBox="0 0 181.57 165.82"><defs><style>.cls-1{isolation:isolate;}.cls-10,.cls-11,.cls-12,.cls-13,.cls-14,.cls-15,.cls-16,.cls-17,.cls-18,.cls-19,.cls-2,.cls-20,.cls-21,.cls-22,.cls-23,.cls-24,.cls-25,.cls-26,.cls-27,.cls-28,.cls-29,.cls-30,.cls-31,.cls-32,.cls-33,.cls-34,.cls-35,.cls-36,.cls-37,.cls-38,.cls-39,.cls-4,.cls-40,.cls-41,.cls-42,.cls-43,.cls-5,.cls-6,.cls-7,.cls-8,.cls-9{stroke:#fff;stroke-width:0.75px;}.cls-2{fill:url(#radial-gradient);}.cls-3{fill:none;stroke:#bdb4ab;stroke-linecap:round;stroke-miterlimit:10;stroke-width:1.5px;mix-blend-mode:multiply;}.cls-4{fill:url(#radial-gradient-2);}.cls-5{fill:url(#radial-gradient-3);}.cls-6{fill:url(#radial-gradient-4);}.cls-7{fill:url(#radial-gradient-5);}.cls-8{fill:url(#radial-gradient-6);}.cls-9{fill:url(#radial-gradient-7);}.cls-10{fill:url(#radial-gradient-8);}.cls-11{fill:url(#radial-gradient-9);}.cls-12{fill:url(#radial-gradient-10);}.cls-13{fill:url(#radial-gradient-11);}.cls-14{fill:url(#radial-gradient-12);}.cls-15{fill:url(#radial-gradient-13);}.cls-16{fill:url(#radial-gradient-14);}.cls-17{fill:url(#radial-gradient-15);}.cls-18{fill:url(#radial-gradient-16);}.cls-19{fill:url(#radial-gradient-17);}.cls-20{fill:url(#radial-gradient-18);}.cls-21{fill:url(#radial-gradient-19);}.cls-22{fill:url(#radial-gradient-20);}.cls-23{fill:url(#radial-gradient-21);}.cls-24{fill:url(#radial-gradient-22);}.cls-25{fill:url(#radial-gradient-23);}.cls-26{fill:url(#radial-gradient-24);}.cls-27{fill:url(#radial-gradient-25);}.cls-28{fill:url(#radial-gradient-26);}.cls-29{fill:url(#radial-gradient-27);}.cls-30{fill:url(#radial-gradient-28);}.cls-31{fill:url(#radial-gradient-29);}.cls-32{fill:url(#radial-gradient-30);}.cls-33{fill:url(#radial-gradient-31);}.cls-34{fill:url(#radial-gradient-32);}.cls-35{fill:url(#radial-gradient-33);}.cls-36{fill:url(#radial-gradient-34);}.cls-37{fill:url(#radial-gradient-35);}.cls-38{fill:url(#radial-gradient-36);}.cls-39{fill:url(#radial-gradient-37);}.cls-40{fill:url(#radial-gradient-38);}.cls-41{fill:url(#radial-gradient-39);}.cls-42{fill:url(#radial-gradient-40);}.cls-43{fill:url(#radial-gradient-41);}</style><radialGradient id="radial-gradient" cx="400.88" cy="147.41" r="12.65" gradientTransform="matrix(0.38, 0, 0, 0.38, -14.79, -9.65)" gradientUnits="userSpaceOnUse"><stop offset="0" stop-color="#dcd1c6"/><stop offset="1" stop-color="#a8a099"/></radialGradient><radialGradient id="radial-gradient-2" cx="379.01" cy="80.65" r="12.65" gradientTransform="matrix(0.33, 0.19, -0.19, 0.33, 19.9, -77.95)" xlink:href="#radial-gradient"/><radialGradient id="radial-gradient-3" cx="134.28" cy="35.28" r="7.73" gradientUnits="userSpaceOnUse"><stop offset="0" stop-color="#94877e"/><stop offset="1" stop-color="#635a54"/></radialGradient><radialGradient id="radial-gradient-4" cx="422.08" cy="107.53" r="12.65" gradientTransform="matrix(0.33, 0.19, -0.19, 0.33, 27.2, -84.78)" gradientUnits="userSpaceOnUse"><stop offset="0" stop-color="#e98166"/><stop offset="1" stop-color="#dc4e34"/></radialGradient><radialGradient id="radial-gradient-5" cx="313.06" cy="153.2" r="12.65" gradientTransform="matrix(0.33, 0.19, -0.19, 0.33, 30.36, -61.62)" xlink:href="#radial-gradient"/><radialGradient id="radial-gradient-6" cx="117.99" cy="43.43" r="7.73" xlink:href="#radial-gradient-3"/><radialGradient id="radial-gradient-7" cx="461.26" cy="187.79" r="12.65" xlink:href="#radial-gradient"/><radialGradient id="radial-gradient-8" cx="354.18" cy="273.4" r="12.65" gradientTransform="matrix(0.38, 0, 0, 0.38, -14.79, -9.65)" xlink:href="#radial-gradient-4"/><radialGradient id="radial-gradient-9" cx="120.93" cy="61.76" r="7.73" xlink:href="#radial-gradient-3"/><radialGradient id="radial-gradient-10" cx="282.72" cy="217.25" r="12.65" gradientTransform="matrix(0.38, 0, 0, 0.38, -14.79, -9.65)" xlink:href="#radial-gradient-4"/><radialGradient id="radial-gradient-11" cx="104.19" cy="69.22" r="7.72" xlink:href="#radial-gradient-3"/><radialGradient id="radial-gradient-12" cx="327.02" cy="289.33" r="12.65" gradientTransform="matrix(0.33, 0.19, -0.19, 0.33, 57.07, -57.35)" xlink:href="#radial-gradient"/><radialGradient id="radial-gradient-13" cx="106.45" cy="88" r="7.72" xlink:href="#radial-gradient-3"/><radialGradient id="radial-gradient-14" cx="77" cy="116.93" r="11.29" xlink:href="#radial-gradient-3"/><radialGradient id="radial-gradient-15" cx="229" cy="371.32" r="12.65" gradientTransform="matrix(0.33, 0.19, -0.19, 0.33, 67.75, -34.46)" xlink:href="#radial-gradient"/><radialGradient id="radial-gradient-16" cx="135.41" cy="86.42" r="7.72" xlink:href="#radial-gradient-3"/><radialGradient id="radial-gradient-17" cx="70.74" cy="352.3" r="12.65" gradientTransform="matrix(0.33, 0.19, -0.19, 0.33, 56.08, -5.2)" xlink:href="#radial-gradient"/><radialGradient id="radial-gradient-18" cx="19.36" cy="121.44" r="7.72" xlink:href="#radial-gradient-3"/><radialGradient id="radial-gradient-19" cx="43.55" cy="125.11" r="7.72" xlink:href="#radial-gradient-3"/><radialGradient id="radial-gradient-20" cx="53.42" cy="113.8" r="7.73" xlink:href="#radial-gradient-3"/><radialGradient id="radial-gradient-21" cx="82.51" cy="90.06" r="10.89" xlink:href="#radial-gradient-3"/><radialGradient id="radial-gradient-22" cx="80.21" cy="135.97" r="7.73" xlink:href="#radial-gradient-3"/><radialGradient id="radial-gradient-23" cx="156.91" cy="65.15" r="7.73" xlink:href="#radial-gradient-3"/><radialGradient id="radial-gradient-24" cx="137.91" cy="73.52" r="7.72" xlink:href="#radial-gradient-3"/><radialGradient id="radial-gradient-25" cx="79.61" cy="296.21" r="12.65" xlink:href="#radial-gradient"/><radialGradient id="radial-gradient-26" cx="47.62" cy="142.76" r="4.85" gradientTransform="translate(77.48 -4.74) rotate(29.89)" xlink:href="#radial-gradient-4"/><radialGradient id="radial-gradient-27" cx="291.59" cy="388.5" r="12.65" gradientTransform="matrix(0.38, 0, 0, 0.38, -14.79, -9.65)" xlink:href="#radial-gradient-4"/><radialGradient id="radial-gradient-28" cx="421.49" cy="279.36" r="12.65" xlink:href="#radial-gradient"/><radialGradient id="radial-gradient-29" cx="324.65" cy="65.59" r="12.65" gradientTransform="matrix(0.33, 0.19, -0.19, 0.33, 14.22, -69.89)" xlink:href="#radial-gradient"/><radialGradient id="radial-gradient-30" cx="68.98" cy="367.65" r="12.65" gradientTransform="matrix(0.33, 0.19, -0.19, 0.33, 58.92, -4.08)" xlink:href="#radial-gradient"/><radialGradient id="radial-gradient-31" cx="172.9" cy="335.26" r="12.65" gradientTransform="matrix(0.33, 0.19, -0.19, 0.33, 58.01, -25.58)" xlink:href="#radial-gradient"/><radialGradient id="radial-gradient-32" cx="230.77" cy="419.74" r="12.65" gradientTransform="matrix(0.33, 0.19, -0.19, 0.33, 77.09, -32.33)" xlink:href="#radial-gradient"/><radialGradient id="radial-gradient-33" cx="346.41" cy="246.85" r="12.65" xlink:href="#radial-gradient"/><radialGradient id="radial-gradient-34" cx="289.22" cy="175.92" r="12.65" xlink:href="#radial-gradient"/><radialGradient id="radial-gradient-35" cx="399.64" cy="245.1" r="12.65" xlink:href="#radial-gradient"/><radialGradient id="radial-gradient-36" cx="473.95" cy="222.63" r="12.65" gradientTransform="matrix(0.33, 0.19, -0.19, 0.33, 51.78, -88.8)" xlink:href="#radial-gradient-4"/><radialGradient id="radial-gradient-37" cx="456.92" cy="167.34" r="12.65" xlink:href="#radial-gradient"/><radialGradient id="radial-gradient-38" cx="108.49" cy="27.81" r="7.72" xlink:href="#radial-gradient-3"/><radialGradient id="radial-gradient-39" cx="282.73" cy="108.01" r="12.65" xlink:href="#radial-gradient"/><radialGradient id="radial-gradient-40" cx="344.72" cy="90.94" r="12.65" xlink:href="#radial-gradient"/><radialGradient id="radial-gradient-41" cx="89.49" cy="117.64" r="7.72" xlink:href="#radial-gradient-3"/></defs><title>sarinCompound</title><g class="cls-1"><g id="Background"><path class="cls-2" d="M141.25,50.92A4.84,4.84,0,1,1,143,44.31,4.85,4.85,0,0,1,141.25,50.92Z"/><line class="cls-3" x1="138.08" y1="45.02" x2="135.26" y2="35.66"/><ellipse class="cls-4" cx="130.45" cy="21.15" rx="4.85" ry="4.84" transform="translate(6.82 67.84) rotate(-29.9)"/><line class="cls-3" x1="131.08" y1="23.97" x2="133.39" y2="31.66"/><path class="cls-5" d="M141,31.44a7.71,7.71,0,0,0-10.54-2.85,7.73,7.73,0,0,0-2.86,10.54A7.73,7.73,0,0,0,138.13,42,7.71,7.71,0,0,0,141,31.44Z"/><line class="cls-3" x1="146.96" y1="31.43" x2="137.73" y2="33.94"/><circle class="cls-6" cx="146.96" cy="31.44" r="4.85" transform="translate(3.88 77.41) rotate(-29.89)"/><line class="cls-3" x1="121.09" y1="41.92" x2="130.61" y2="37.27"/><circle class="cls-7" cx="105.18" cy="48.97" r="4.85" transform="translate(-10.41 58.9) rotate(-29.88)"/><line class="cls-3" x1="107.58" y1="47.95" x2="116.58" y2="43.39"/><path class="cls-8" d="M124.69,39.59a7.72,7.72,0,1,0-2.84,10.54A7.71,7.71,0,0,0,124.69,39.59Z"/><path class="cls-9" d="M164.38,66.38a4.84,4.84,0,1,1,1.78-6.62A4.85,4.85,0,0,1,164.38,66.38Z"/><line class="cls-3" x1="122.56" y1="62.78" x2="137.9" y2="73.52"/><line class="cls-3" x1="139.93" y1="73.5" x2="156.91" y2="65.15"/><line class="cls-3" x1="147.26" y1="97.4" x2="138.24" y2="89.85"/><line class="cls-3" x1="120.75" y1="95.49" x2="132.82" y2="87.93"/><path class="cls-10" d="M123.35,99.22a4.84,4.84,0,1,1,1.79-6.61A4.85,4.85,0,0,1,123.35,99.22Z"/><line class="cls-3" x1="119.85" y1="58.73" x2="118.97" y2="47.71"/><path class="cls-11" d="M127.63,57.91a7.72,7.72,0,0,0-10.54-2.85,7.72,7.72,0,0,0-2.85,10.54,7.73,7.73,0,0,0,10.55,2.85A7.71,7.71,0,0,0,127.63,57.91Z"/><line class="cls-3" x1="105.87" y1="68.53" x2="116.83" y2="63.86"/><path class="cls-12" d="M96,77.72a4.84,4.84,0,1,1,1.78-6.61A4.85,4.85,0,0,1,96,77.72Z"/><line class="cls-3" x1="94.99" y1="73.12" x2="101.36" y2="69.77"/><path class="cls-13" d="M110.88,65.38a7.72,7.72,0,0,0-14.15,1.83,7.67,7.67,0,0,0,.76,5.86A7.73,7.73,0,0,0,108,75.92,7.71,7.71,0,0,0,110.88,65.38Z"/><line class="cls-3" x1="104.96" y1="73.12" x2="106.44" y2="84.66"/><ellipse class="cls-14" cx="110.53" cy="101.13" rx="4.85" ry="4.84" transform="translate(-35.69 68.52) rotate(-29.88)"/><line class="cls-3" x1="109.47" y1="97.8" x2="107.11" y2="89.51"/><path class="cls-15" d="M113.15,84.16A7.72,7.72,0,1,0,110.3,94.7,7.71,7.71,0,0,0,113.15,84.16Z"/><line class="cls-3" x1="81.85" y1="89.62" x2="101.33" y2="88.07"/><line class="cls-3" x1="77" y1="116.94" x2="82.28" y2="89.58"/><line class="cls-3" x1="82.13" y1="136.17" x2="96.95" y2="139.14"/><line class="cls-3" x1="79.84" y1="133.89" x2="77.1" y2="118.51"/><line class="cls-3" x1="52.89" y1="113.33" x2="77" y2="116.94"/><line class="cls-3" x1="47.57" y1="142.11" x2="43.55" y2="125.11"/><line class="cls-3" x1="24.99" y1="122.8" x2="42" y2="125.3"/><line class="cls-3" x1="15.89" y1="106.04" x2="18.51" y2="116.53"/><path class="cls-16" d="M86.78,111.32a11.28,11.28,0,0,0-15.4-4.17,11.28,11.28,0,0,0-4.17,15.4,11.3,11.3,0,0,0,15.42,4.17A11.27,11.27,0,0,0,86.78,111.32Z"/><ellipse class="cls-17" cx="72.97" cy="132.58" rx="4.85" ry="4.84" transform="translate(-56.36 53.99) rotate(-29.89)"/><path class="cls-18" d="M142.11,82.58A7.72,7.72,0,0,0,128,84.4a7.67,7.67,0,0,0,.76,5.86,7.74,7.74,0,0,0,10.55,2.85A7.71,7.71,0,0,0,142.11,82.58Z"/><ellipse class="cls-19" cx="12.32" cy="125.34" rx="4.85" ry="4.84" transform="translate(-60.82 22.81) rotate(-29.89)"/><path class="cls-20" d="M26.06,117.6a7.72,7.72,0,1,0-2.84,10.54A7.71,7.71,0,0,0,26.06,117.6Z"/><path class="cls-21" d="M50.24,121.27a7.72,7.72,0,0,0-10.54-2.85A7.72,7.72,0,0,0,36.85,129a7.74,7.74,0,0,0,10.55,2.85A7.71,7.71,0,0,0,50.24,121.27Z"/><path class="cls-22" d="M60.11,110a7.72,7.72,0,0,0-10.54-2.85,7.72,7.72,0,0,0-2.86,10.54,7.73,7.73,0,0,0,10.55,2.85A7.71,7.71,0,0,0,60.11,110Z"/><path class="cls-23" d="M91.94,84.64a10.87,10.87,0,0,0-14.85-4,10.88,10.88,0,0,0-4,14.85,10.89,10.89,0,0,0,14.87,4A10.87,10.87,0,0,0,91.94,84.64Z"/><path class="cls-24" d="M86.9,132.13a7.71,7.71,0,0,0-10.54-2.85,7.72,7.72,0,0,0-2.86,10.54,7.73,7.73,0,0,0,10.55,2.85A7.71,7.71,0,0,0,86.9,132.13Z"/><path class="cls-25" d="M163.61,61.3a7.72,7.72,0,0,0-10.54-2.85A7.72,7.72,0,0,0,150.21,69a7.73,7.73,0,0,0,10.55,2.85A7.71,7.71,0,0,0,163.61,61.3Z"/><path class="cls-26" d="M144.6,69.68a7.71,7.71,0,1,0,.77,5.85A7.64,7.64,0,0,0,144.6,69.68Z"/><path class="cls-27" d="M18.13,108a4.84,4.84,0,1,1,1.78-6.61A4.85,4.85,0,0,1,18.13,108Z"/><circle class="cls-28" cx="47.62" cy="142.76" r="4.85" transform="translate(-64.81 42.72) rotate(-29.89)"/><path class="cls-29" d="M99.37,143.34a4.84,4.84,0,1,1,1.78-6.62A4.85,4.85,0,0,1,99.37,143.34Z"/><path class="cls-30" d="M149.15,101.48a4.84,4.84,0,1,1,1.78-6.61A4.85,4.85,0,0,1,149.15,101.48Z"/><circle class="cls-31" cx="109.62" cy="13.79" r="4.85" transform="translate(7.7 56.44) rotate(-29.88)"/><line class="cls-3" x1="11.6" y1="131.56" x2="17.48" y2="123.93"/><ellipse class="cls-32" cx="11.65" cy="131.22" rx="4.85" ry="4.84" transform="translate(-63.83 23.25) rotate(-29.89)"/><line class="cls-3" x1="78.63" y1="138.91" x2="73.65" y2="151.13"/><line class="cls-3" x1="51.47" y1="118.78" x2="43.55" y2="125.11"/><ellipse class="cls-33" cx="51.47" cy="118.78" rx="4.85" ry="4.84" transform="matrix(0.87, -0.5, 0.5, 0.87, -52.34, 41.44)"/><ellipse class="cls-34" cx="73.65" cy="151.13" rx="4.85" ry="4.84" transform="translate(-65.51 56.79) rotate(-29.89)"/><line class="cls-3" x1="96.04" y1="57.68" x2="101.64" y2="65.05"/><line class="cls-3" x1="118.5" y1="85.11" x2="110.41" y2="86.93"/><line class="cls-3" x1="160.04" y1="67.65" x2="167.15" y2="75.49"/><line class="cls-3" x1="109.32" y1="16.59" x2="108.58" y2="26.02"/><line class="cls-3" x1="93.55" y1="31.66" x2="106.43" y2="28.39"/><line class="cls-3" x1="115.89" y1="40.12" x2="109.48" y2="29.97"/><path class="cls-35" d="M120.37,89a4.84,4.84,0,1,1,1.79-6.62A4.85,4.85,0,0,1,120.37,89Z"/><path class="cls-36" d="M98.46,61.88a4.84,4.84,0,1,1,1.78-6.61A4.85,4.85,0,0,1,98.46,61.88Z"/><line class="cls-3" x1="138.35" y1="84.16" x2="138.2" y2="76.68"/><path class="cls-37" d="M140.77,88.36a4.84,4.84,0,1,1,1.78-6.61A4.85,4.85,0,0,1,140.77,88.36Z"/><ellipse class="cls-38" cx="166.83" cy="75.53" rx="4.85" ry="4.84" transform="translate(-15.45 93.15) rotate(-29.88)"/><line class="cls-3" x1="160.31" y1="53.16" x2="158.08" y2="61.77"/><path class="cls-39" d="M162.72,58.54a4.84,4.84,0,1,1,1.79-6.61A4.85,4.85,0,0,1,162.72,58.54Z"/><path class="cls-40" d="M115.18,24a7.71,7.71,0,0,0-10.54-2.85,7.72,7.72,0,0,0-2.86,10.54,7.73,7.73,0,0,0,10.55,2.85A7.71,7.71,0,0,0,115.18,24Z"/><path class="cls-41" d="M96,35.86a4.84,4.84,0,1,1,1.78-6.61A4.85,4.85,0,0,1,96,35.86Z"/><line class="cls-3" x1="117.31" y1="25.1" x2="110.19" y2="27.54"/><path class="cls-42" d="M119.73,29.3a4.84,4.84,0,1,1,1.78-6.61A4.85,4.85,0,0,1,119.73,29.3Z"/><line class="cls-3" x1="89.48" y1="117.64" x2="79.54" y2="117.33"/><path class="cls-43" d="M96.18,113.8a7.72,7.72,0,1,0-2.84,10.54A7.71,7.71,0,0,0,96.18,113.8Z"/></g></g></svg>